.
..............................Site Info...........................

 -   http://www.scenetime.com  *_*   

SceneTime is going to Close sign up on march/1, hurry up! get in before the doors are closed.

     We care to share . Join us on  http://www.scenetime.com 

    Be the first to get new release at  http://www.scenetime.com

        Seed back for speed


...................................NFO:.................................................

[size=3][color=#009999]



   Anonymous 2011 DVDRIP XVID AC3 - Xtreme Encode



[/color][/size]


[size=3]
[color=#CC9933]General


Complete name                            : Anonymous 2011 DVDRIP XVID AC3 - Xtreme Encode.avi
Format                                   : AVI
Format/Info                              : Audio Video Interleave
File size                                : 1.32 GiB
Duration                                 : 2h 9mn
Overall bit rate                         : 1 455 Kbps[/color][/size]




[size=3][color=#669900]
Video


ID                                       : 0
Format                                   : MPEG-4 Visual
Format profile                           : Advanced Simple@L5
Format settings, BVOP                    : 2
Format settings, QPel                    : No
Format settings, GMC                     : No warppoints
Format settings, Matrix                  : Default (H.263)
Muxing mode                              : Packed bitstream
Codec ID                                 : XVID
Codec ID/Hint                            : XviD
Duration                                 : 2h 9mn
Bit rate                                 : 998 Kbps
Width                                    : 720 pixels
Height                                   : 304 pixels
Display aspect ratio                     : 2.35:1
Frame rate                               : 23.976 fps
Color space                              : YUV
Chroma subsampling                       : 4:2:0
Bit depth                                : 8 bits
Scan type                                : Progressive
Compression mode                         : Lossy
Bits/(Pixel*Frame)                       : 0.190
Stream size                              : 928 MiB (69%)[/color][/size]




[size=3][color=#009900]Audio


ID                                       : 1
Format                                   : AC-3
Format/Info                              : Audio Coding 3
Mode extension                           : CM (complete main)
Codec ID                                 : 2000
Duration                                 : 2h 9mn
Bit rate mode                            : Constant
Bit rate                                 : 448 Kbps
Channel(s)                               : 6 channels
Channel positions                        : Front: L C R, Side: L R, LFE
Sampling rate                            : 48.0 KHz
Bit depth                                : 16 bits
Compression mode                         : Lossy
Stream size                              : 416 MiB (31%)
Alignment                                : Aligned on interleaves
Interleave, duration                     : 42 ms (1.00 video frame)
Interleave, preload duration             : 512 ms[/color][/size]





[size=3][color=#6699FF]
SOURCE
Video : NTSC.MULTi.DVDR-DUPLI
Audio : NTSC.MULTi.DVDR-DUPLI



JUST A LITTLE MESS WITH THIS ADDES BIT OF CONTRAS 
RESIZED BIT TWEAKED BIT SHARPEN in 
SAT HUE and few othere things :)[/color][/size]




[size=3][color=#0099CC]PLOT

A political thriller advancing the theory that it was in fact Edward De Vere, Earl of Oxford 
who penned Shakespeare's plays; set against the backdrop of the succession of Queen Elizabeth I, 
and the Essex Rebellion against her. 


 [/color][/size]


[size=3][color=#CC6600]Genres: Drama | Thriller 


Director: Roland Emmerich

Writer: John Orloff

Stars: Rhys Ifans, Vanessa Redgrave and David Thewlis [/color][/size]


[size=3][color=#0033FF]IMDB: http://www.imdb.com/title/tt1521197/[/color][/size]



[size=3][color=#996600]HOPE U ALL LIKE THIS IF SO PLS REP
   
IF U GOT ANYTHING TO OFFER JUST DROP ONE AT: Xtreme-Encode@hushmail.me  :)[/color][/size]



[size=3][color=#CC0000]
SCREENS:




[/color][/size]


[size=3][b][font=Times New Roman][color=#3366CC]
      GREETS:

IMAGiNE / ELEKTRI4KA / FLAWL3SS / DTRG
ViSiON / CRYS / BMB / MiSTERE / 26K
AMB / FYA / Jamie111 / VISUALiSE  
ILLUMINATI / Rx / REFiLL / BHRG
TO MY FRIENDS  AND ALL OTHER GROUPS  :)[/color][/font][/b][/size]